<svg width="14" height="16" viewBox="0 0 14 16" fill="none" xmlns="http://www.w3.org/2000/svg">
<path d="M4.57153 5.71429H5.71439V12.5714H4.57153V5.71429Z" fill="black"/>
<path d="M8 5.71429H9.14286V12.5714H8V5.71429Z" fill="black"/>
<path d="M0 2.28571V3.42857H1.14286V14.8571C1.14286 15.1602 1.26326 15.4509 1.47759 15.6653C1.69192 15.8796 1.98261 16 2.28571 16H11.4286C11.7317 16 12.0224 15.8796 12.2367 15.6653C12.451 15.4509 12.5714 15.1602 12.5714 14.8571V3.42857H13.7143V2.28571H0ZM2.28571 14.8571V3.42857H11.4286V14.8571H2.28571Z" fill="black"/>
<path d="M4.57153 0H9.14296V1.14286H4.57153V0Z" fill="black"/>
</svg>
